<svg xmlns="http://www.w3.org/2000/svg" xmlns:xlink="http://www.w3.org/1999/xlink" width="16px" height="16px" viewBox="0 0 16 16" version="1.1">
<g >
<path fill="#fff" d="M 11.199219 9.5 C 10.175781 9.5 9.683594 10 8 10 C 6.316406 10 5.828125 9.5 4.800781 9.5 C 2.148438 9.5 0 11.382812 0 13.699219 L 0 14.5 C 0 15.328125 0.769531 16 1.714844 16 L 14.285156 16 C 15.230469 16 16 15.328125 16 14.5 L 16 13.699219 C 16 11.382812 13.851562 9.5 11.199219 9.5 Z M 14.285156 14.5 L 1.714844 14.5 L 1.714844 13.699219 C 1.714844 12.210938 3.101562 11 4.800781 11 C 5.320312 11 6.167969 11.5 8 11.5 C 9.847656 11.5 10.675781 11 11.199219 11 C 12.898438 11 14.285156 12.210938 14.285156 13.699219 Z M 8 9 C 10.839844 9 13.144531 6.984375 13.144531 4.5 C 13.144531 2.015625 10.839844 0 8 0 C 5.160156 0 2.855469 2.015625 2.855469 4.5 C 2.855469 6.984375 5.160156 9 8 9 Z M 8 1.5 C 9.890625 1.5 11.429688 2.847656 11.429688 4.5 C 11.429688 6.152344 9.890625 7.5 8 7.5 C 6.109375 7.5 4.570312 6.152344 4.570312 4.5 C 4.570312 2.847656 6.109375 1.5 8 1.5 Z M 8 1.5 "/>
</g>
</svg>
